:SAMPLES-PER-SECOND 30
:FULLY-SPECIFIED
:DEGREES
248
root  36.2389 37.0908 -9.71006 69.3342 82.6467 76.572
RightUpLeg  5.02314 -3.31734 -12.3734
RightLeg  58.613 9.50916 15.8691
RightFoot  4.68287 -2.25792 16.2669
RightToes  -8.14909e-010 0 -3.6325e-017
Spine  4.61482 4.74419 3.81791
Spine1  9.42849 8.36989 -15.2621
HEad  -9.86448 -6.8909 -3.23026
LeftShoulder1  -0.405953 4.65251 -29.1841
LeftArm  -7.58031 15.0629 -37.1904
LeftForeArm  30.8111 -9.00794 -6.56265
LeftHand  0.00547196 7.429 2.4345
RightShoulder  -0.376412 -4.93554 19.2551
RightArm  -7.01517 32.672 46.1443
RightForeArm  39.8141 31.6896 4.73531
RightHand  -0.120313 -0.217259 -2.68609
LeftUpLeg  -16.9585 3.58505 -13.0013
LeftLeg  24.1529 2.37036 1.51598
LeftFoot  0.402953 -1.06544 10.3035
LeftToes  1.648e-009 -9.21574e-011 2.55256e-011
249
root  37.3672 37.1772 -9.72108 67.9677 81.7966 75.3988
RightUpLeg  -1.22448 -0.773972 -13.0902
RightLeg  65.9913 6.57347 15.1668
RightFoot  6.00481 -2.04464 13.5329
RightToes  -8.14909e-010 0 -3.6325e-017
Spine  5.13951 4.3392 1.96454
Spine1  9.76965 7.55611 -14.6445
HEad  -10.7062 -6.11465 -3.64204
LeftShoulder1  -0.381873 4.56953 -29.6126
LeftArm  -7.17346 13.7887 -37.9468
LeftForeArm  31.1388 -9.1066 -6.76776
LeftHand  -8.68863e-005 7.54281 2.08136
RightShoulder  -0.339088 -4.81037 18.8159
RightArm  -6.41185 34.4035 47.5077
RightForeArm  39.614 30.2646 4.41966
RightHand  -0.0976519 0.00776803 -2.12429
LeftUpLeg  -15.2098 3.96769 -13.7691
LeftLeg  24.9398 2.71354 1.73227
LeftFoot  -1.89502 -0.840738 10.28
LeftToes  1.648e-009 -9.21574e-011 2.55256e-011
250
root  38.5419 37.4559 -9.74694 69.7574 82.4953 77.3876
RightUpLeg  -6.40315 0.418237 -12.5796
RightLeg  69.0464 4.2762 11.583
RightFoot  3.36765 -1.43066 11.2575
RightToes  -8.14909e-010 0 -3.6325e-017
Spine  4.99084 3.50577 1.20879
Spine1  10.608 6.24412 -12.962
HEad  -11.006 -5.45848 -3.65998
LeftShoulder1  -0.502338 4.86262 -30.866
LeftArm  -5.07551 11.4327 -38.0027
LeftForeArm  31.5848 -9.67474 -7.51811
LeftHand  0.00199116 7.00004 2.59441
RightShoulder  -0.270301 -4.59379 17.5836
RightArm  -5.51643 34.5297 48.9753
RightForeArm  37.988 29.2678 4.27935
RightHand  -0.123261 0.899321 -2.376
LeftUpLeg  -12.5863 3.26792 -13.1881
LeftLeg  24.4579 3.07923 1.82363
LeftFoot  -3.54585 -0.66658 10.0681
LeftToes  1.648e-009 -9.21574e-011 2.55256e-011
251
root  39.7355 37.7698 -9.76877 74.4965 83.5408 82.2603
RightUpLeg  -10.85 1.0913 -11.8416
RightLeg  68.477 3.31555 8.57708
RightFoot  2.70851 -1.09516 9.01957
RightToes  -8.14909e-010 0 -3.6325e-017
Spine  5.19426 2.77245 1.13024
Spine1  10.1952 5.15995 -11.8483
HEad  -10.6893 -5.56059 -3.35276
LeftShoulder1  -0.443649 4.71074 -30.4808
LeftArm  -3.49473 9.48403 -39.2529
LeftForeArm  32.757 -10.0424 -7.97862
LeftHand  -0.0132301 6.95253 1.7897
RightShoulder  -0.281095 -4.62341 17.8634
RightArm  -4.11348 32.7773 49.0714
RightForeArm  37.76 29.2751 4.29341
RightHand  -0.136981 0.874016 -2.71386
LeftUpLeg  -9.55107 2.48031 -12.2533
LeftLeg  23.177 3.01676 1.55788
LeftFoot  -4.95637 -0.532673 10.0722
LeftToes  1.648e-009 -9.21574e-011 2.55256e-011
252
root  40.9177 38.047 -9.79138 80.4485 84.4974 88.189
RightUpLeg  -14.6247 1.82527 -11.0545
RightLeg  64.7266 3.0952 6.57909
RightFoot  1.99403 -0.747342 6.50582
RightToes  -8.14909e-010 0 -3.6325e-017
Spine  5.18485 2.15157 1.53797
Spine1  9.69964 4.46249 -11.5034
HEad  -10.2569 -5.93582 -2.46095
LeftShoulder1  -0.195596 4.06261 -28.9714
LeftArm  -2.25922 8.4059 -41.3246
LeftForeArm  33.3651 -11.4231 -7.75358
LeftHand  -0.0198862 7.73288 1.02057
RightShoulder  -0.31489 -4.70451 19.1052
RightArm  -2.56601 30.5618 48.0589
RightForeArm  38.9677 28.833 4.13357
RightHand  -0.0716707 2.50863 -1.22686
LeftUpLeg  -6.63321 2.46536 -11.3227
LeftLeg  21.5152 2.44952 1.07625
LeftFoot  -6.1367 -0.43592 10.355
LeftToes  1.648e-009 -9.21574e-011 2.55256e-011
253
root  42.0611 38.236 -9.79934 86.8784 85.0995 94.7009
RightUpLeg  -17.2477 2.64264 -10.5453
RightLeg  57.9716 3.2736 5.16836
RightFoot  0.739716 -0.637644 6.07166
RightToes  -8.14909e-010 0 -3.6325e-017
Spine  5.92517 1.64361 0.930275
Spine1  8.78711 3.48932 -9.92005
HEad  -9.87975 -5.73119 -1.91178
LeftShoulder1  -0.154508 3.95042 -28.5612
LeftArm  1.37314 7.8153 -42.6566
LeftForeArm  30.2182 -14.8734 -6.81476
LeftHand  -0.0054623 7.08258 2.10841
RightShoulder  -0.310861 -4.69102 19.0046
RightArm  -0.183742 27.79 47.508
RightForeArm  39.8613 28.4431 4.00328
RightHand  -0.0407922 2.12228 -0.810257
LeftUpLeg  -3.79151 2.82396 -10.535
LeftLeg  20.0937 1.67718 0.62391
LeftFoot  -7.57878 -0.288316 10.1653
LeftToes  1.648e-009 -9.21574e-011 2.55256e-011
254
root  43.2371 38.3501 -9.83511 98.8874 85.436 106.873
RightUpLeg  -18.2756 2.53609 -10.4083
RightLeg  48.1451 3.76371 4.2019
RightFoot  -0.358892 -0.632159 6.55689
RightToes  -8.14909e-010 0 -3.6325e-017
Spine  6.12336 1.01503 0.0132141
Spine1  8.65633 2.40444 -8.03556
HEad  -10.0017 -5.92823 -1.51573
LeftShoulder1  -0.313043 4.3897 -28.9695
LeftArm  6.56646 6.43096 -42.7759
LeftForeArm  23.8301 -18.352 -5.55118
LeftHand  -0.00972314 6.19213 2.89493
RightShoulder  -0.363678 -4.84022 20.1851
RightArm  3.00758 25.5515 45.5185
RightForeArm  40.9385 27.4805 3.74254
RightHand  -0.00338859 1.5223 -0.191235
LeftUpLeg  -0.931564 3.08069 -10.0031
LeftLeg  18.8091 0.681576 0.365024
LeftFoot  -8.95609 -0.16439 10.4442
LeftToes  1.648e-009 -9.21574e-011 2.55256e-011
255
root  44.4318 38.4396 -9.8505 108.105 85.4743 116.186
RightUpLeg  -17.7896 2.54668 -10.2682
RightLeg  35.2217 3.70278 2.61457
RightFoot  -0.959926 -0.717593 7.80308
RightToes  -8.14909e-010 0 -3.6325e-017
Spine  5.95802 0.669498 -1.44603
Spine1  8.93395 1.38698 -5.11342
HEad  -10.1216 -5.5406 -1.99168
LeftShoulder1  -0.457484 4.75061 -30.5594
LeftArm  10.4343 5.22683 -41.7191
LeftForeArm  19.1883 -22.6262 -4.16539
LeftHand  -0.0145846 5.8398 3.58632
RightShoulder  -0.332216 -4.72195 20.2018
RightArm  5.16702 22.7075 44.0019
RightForeArm  42.483 25.8278 3.31083
RightHand  0.0392876 1.21601 0.558879
LeftUpLeg  1.83444 3.70756 -9.47781
LeftLeg  17.7338 -0.472432 0.0292821
LeftFoot  -10.2143 -0.0414175 10.4606
LeftToes  1.648e-009 -9.21574e-011 2.55256e-011
256
root  45.6118 38.4261 -9.87606 106.52 85.1495 113.962
RightUpLeg  -17.5715 1.75276 -10.4043
RightLeg  21.3916 4.23006 1.43614
RightFoot  -0.468797 -0.786002 8.2102
RightToes  -8.14909e-010 0 -3.6325e-017
Spine  5.67605 0.446063 -1.91876
Spine1  8.23892 1.20294 -4.61816
HEad  -9.92087 -5.40121 -1.83235
LeftShoulder1  -0.361913 4.51992 -29.483
LeftArm  7.81822 5.59648 -42.1792
LeftForeArm  21.1296 -26.1683 -4.44251
LeftHand  -0.0257795 5.33439 4.59971
RightShoulder  -0.358108 -4.75265 21.6508
RightArm  7.43525 19.6156 41.7391
RightForeArm  43.3243 23.2994 2.84608
RightHand  -0.00892924 0.6475 -0.229748
LeftUpLeg  3.72947 3.95734 -9.63419
LeftLeg  16.6044 -0.714906 -0.216415
LeftFoot  -11.5326 0.0875834 10.5838
LeftToes  1.648e-009 -9.21574e-011 2.55256e-011
257
root  46.8558 38.3979 -9.88643 103.37 84.7976 110.189
RightUpLeg  -16.7757 -2.26273 -9.32782
RightLeg  7.84807 8.50123 0.160602
RightFoot  -0.547859 -0.812631 8.55188
RightToes  -8.14909e-010 0 -3.6325e-017
Spine  4.6941 0.427964 -2.91819
Spine1  8.59916 0.911047 -2.84369
HEad  -9.79349 -4.94166 -1.85683
LeftShoulder1  -0.417215 4.67795 -29.3739
LeftArm  5.57478 5.58065 -42.0418
LeftForeArm  23.1569 -29.3233 -5.08819
LeftHand  -0.0396064 4.97296 4.78964
RightShoulder  -0.433034 -5.00128 21.9914
RightArm  8.51691 16.7254 39.779
RightForeArm  45.3651 20.1313 2.71558
RightHand  -0.0299253 0.788842 -0.645223
LeftUpLeg  5.96246 4.07382 -9.84183
LeftLeg  15.0534 -0.765681 -0.413391
LeftFoot  -12.7685 0.206239 10.4431
LeftToes  1.648e-009 -9.21574e-011 2.55256e-011
258
root  48.1725 38.2815 -9.90128 100.87 84.8086 108.299
RightUpLeg  -15.1356 -8.20468 -6.98237
RightLeg  -1.84485 14.1808 -1.406
RightFoot  -2.11757 -0.815393 9.94979
RightToes  -8.14909e-010 0 -3.6325e-017
Spine  4.90299 0.364863 -2.54557
Spine1  8.86748 0.787979 -2.41259
HEad  -9.17564 -4.20576 -0.668665
LeftShoulder1  -0.416644 4.68829 -29.0071
LeftArm  4.35767 5.62544 -41.6885
LeftForeArm  23.955 -31.5274 -5.56574
LeftHand  -0.0513391 4.71938 5.36956
RightShoulder  -0.489008 -5.16711 22.5514
RightArm  8.19573 13.3872 36.8069
RightForeArm  48.4737 17.3859 3.06692
RightHand  -0.0177309 0.476835 -0.410855
LeftUpLeg  9.44924 4.84133 -9.36557
LeftLeg  13.9755 -1.30083 -0.733212
LeftFoot  -14.663 0.373706 9.77463
LeftToes  1.648e-009 -9.21574e-011 2.55256e-011
259
root  49.5279 37.9939 -9.8508 94.3209 84.5265 101.809
RightUpLeg  -15.6839 -7.61113 -6.52556
RightLeg  -3.00081 11.421 -1.09763
RightFoot  -3.81143 -0.70338 10.3143
RightToes  -8.14909e-010 0 -3.6325e-017
Spine  4.67799 0.517875 -2.76583
Spine1  9.09476 0.847348 -1.9512
HEad  -9.26549 -3.9021 -0.910114
LeftShoulder1  -0.452721 4.78026 -29.307
LeftArm  3.60869 5.25345 -41.0533
LeftForeArm  24.1651 -32.7968 -5.86634
LeftHand  -0.0678799 4.32688 5.3726
RightShoulder  -0.513506 -5.25925 22.4165
RightArm  8.40838 10.3117 33.3324
RightForeArm  50.9496 15.167 3.5991
RightHand  -0.0081956 0.143245 -0.157644
LeftUpLeg  11.55 5.2166 -9.50901
LeftLeg  14.6574 -1.15623 -0.684863
LeftFoot  -17.2157 0.586131 9.41634
LeftToes  1.648e-009 -9.21574e-011 2.55256e-011
260
root  50.9207 37.6731 -9.81572 85.9373 84.9145 93.4834
RightUpLeg  -17.3551 -6.28899 -5.25713
RightLeg  3.29012 6.9847 -0.148085
RightFoot  -1.62697 -0.582422 6.65613
RightToes  -8.14909e-010 0 -3.6325e-017
Spine  4.4065 0.457854 -1.69741
Spine1  9.65494 0.863781 -2.19584
HEad  -9.75541 -2.75316 -1.3001
LeftShoulder1  -0.470068 4.82909 -29.3023
LeftArm  2.82932 5.29992 -40.6767
LeftForeArm  24.8408 -33.1312 -5.91122
LeftHand  -0.0554667 4.60167 5.21337
RightShoulder  -0.516869 -5.28991 22.0837
RightArm  11.3156 7.649 29.2643
RightForeArm  52.1675 14.8533 4.13557
RightHand  0.0454238 -0.252468 1.05046
LeftUpLeg  13.5747 5.35429 -9.32767
LeftLeg  15.6035 -0.289831 -0.0502621
LeftFoot  -19.8239 0.75635 8.55811
LeftToes  1.648e-009 -9.21574e-011 2.55256e-011
